<svg width="30" height="30" viewBox="0 0 30 30" fill="none" xmlns="http://www.w3.org/2000/svg">
<path d="M0.51 18.943C1.41 18.6132 2.34 18.4483 3.33 18.4483C5.34 18.4483 7.095 19.078 8.595 20.3374L3.885 25.045C2.32237 23.2855 1.16968 21.2015 0.51 18.943ZM20.34 11.7016C23.295 13.9055 26.49 14.4453 29.91 13.3208C29.955 13.6357 30 14.2054 30 15C30 16.5442 29.625 18.2684 28.92 20.1724C28.215 22.0615 27.345 23.5907 26.325 24.7452L16.83 15.2849L20.34 11.7016ZM10.155 21.9565C11.745 24.2504 12.075 26.7542 11.13 29.4828C9 28.8681 7.095 27.9086 5.505 26.5892L10.155 21.9565ZM15.285 16.8291L24.75 26.3194C21.495 29.168 17.67 30.3674 13.32 29.9026C13.635 28.9131 13.8 27.8336 13.8 26.6642C13.8 25.7347 13.59 24.6402 13.17 23.3958C12.75 22.1515 12.255 21.132 11.7 20.3374L15.285 16.8291ZM10.215 18.7481C8.84805 17.5263 7.17247 16.7019 5.37 16.3643C3.54 16.0195 1.785 16.1244 0.0899999 16.6942C0.0449999 16.3643 0 15.7946 0 15C0 13.4558 0.375 11.7316 1.08 9.82757C1.785 7.9385 2.655 6.40926 3.675 5.25483L13.665 15.2849L10.215 18.7481ZM20.34 8.59817C18.33 6.1244 17.865 3.42574 18.945 0.517183C19.875 0.757064 20.94 1.20684 22.14 1.8965C23.325 2.57116 24.3 3.24583 25.05 3.89051L20.34 8.59817ZM29.49 11.0719C28.59 11.3868 27.66 11.5517 26.67 11.5517C25.035 11.5517 23.46 11.0719 21.96 10.0824L26.595 5.50971C27.915 7.15889 28.875 9.00297 29.49 11.0719ZM15.285 13.6657L5.25 3.68061C8.505 0.832027 12.33 -0.367378 16.695 0.0973912C16.365 1.0869 16.2 2.16636 16.2 3.33578C16.2 4.41525 16.44 5.62965 16.935 6.99397C17.43 8.3433 18 9.42277 18.75 10.2174L15.285 13.6657Z" fill="#292929"/>
</svg>
