<svg width="30" height="30" viewBox="0 0 30 30" fill="none" xmlns="http://www.w3.org/2000/svg">
<path d="M25.6099 4.38889C23.511 2.29238 20.8374 0.865039 17.9272 0.287295C15.0169 -0.290449 12.0006 0.00734541 9.25964 1.14303C6.51865 2.27872 4.17601 4.20132 2.52784 6.66778C0.879682 9.13424 0 12.0338 0 15C0 17.9662 0.879682 20.8658 2.52784 23.3322C4.17601 25.7987 6.51865 27.7213 9.25964 28.857C12.0006 29.9927 15.0169 30.2905 17.9272 29.7127C20.8374 29.135 23.511 27.7076 25.6099 25.6111C28.4212 22.7948 30 18.9787 30 15C30 11.0213 28.4212 7.20519 25.6099 4.38889ZM6.74027 6.75C8.47875 5.00766 10.7268 3.86357 13.1589 3.48334C12.7696 5.91127 11.6236 8.15442 9.88438 9.89315C8.14512 11.6319 5.90128 12.7775 3.4726 13.1667C3.85239 10.7343 4.99687 8.48592 6.74027 6.74723V6.75ZM3.42814 16.5375C6.76629 16.1426 9.87286 14.6312 12.2433 12.2486C14.6266 9.87886 16.1385 6.77324 16.5335 3.43612C19.0762 3.77047 21.4374 4.93437 23.2509 6.74724C25.0643 8.56012 26.2285 10.9206 26.563 13.4625C23.2277 13.8662 20.1241 15.3762 17.7483 17.7509C15.3725 20.1257 13.8618 23.2282 13.4576 26.5625C10.915 26.2287 8.55365 25.0651 6.74016 23.2524C4.92667 21.4397 3.76243 19.0793 3.42814 16.5375ZM23.2509 23.2528C21.5121 24.9946 19.2642 26.1387 16.8322 26.5194C17.2216 24.0915 18.3675 21.8484 20.1068 20.1096C21.846 18.3709 24.0899 17.2253 26.5186 16.8361C26.1382 19.2675 24.9938 21.5148 23.2509 23.2528Z" fill="#292929"/>
</svg>
