<svg width="30" height="30" viewBox="0 0 30 30" fill="none" xmlns="http://www.w3.org/2000/svg">
<path d="M0 15C0 11.0218 1.58035 7.20644 4.3934 4.3934C7.20644 1.58035 11.0218 0 15 0C18.9782 0 22.7936 1.58035 25.6066 4.3934C28.4196 7.20644 30 11.0218 30 15C30 18.9782 28.4196 22.7936 25.6066 25.6066C22.7936 28.4196 18.9782 30 15 30C11.0218 30 7.20644 28.4196 4.3934 25.6066C1.58035 22.7936 0 18.9782 0 15ZM9.56077 3.53077C7.87723 4.33139 6.38993 5.49176 5.20385 6.93L6.69692 11.7854L9.01846 12.5585L13.8462 8.88923V6.38769L9.56077 3.53077ZM2.39077 16.4631C2.62154 18.4592 3.31385 20.3169 4.35923 21.9208H8.75308L10.2185 20.4554L8.31923 14.7554L5.95615 13.9685L2.39077 16.4631ZM12.4292 27.4292C14.1253 27.7783 15.8747 27.7783 17.5708 27.4292L19.3938 23.3308L17.9838 21.9231H12.0162L10.6085 23.3308L12.4292 27.4315V27.4292ZM25.6385 21.9231C26.6538 20.3677 27.3369 18.5769 27.5862 16.65L24.0231 13.9777L21.6808 14.7577L19.7815 20.4577L21.2469 21.9231H25.6385ZM24.7662 6.89308C23.5851 5.47085 22.1086 4.32274 20.4392 3.52846L16.1538 6.38769V8.88923L20.9815 12.5585L23.2985 11.7877L24.7662 6.89308Z" fill="#292929"/>
</svg>
