<svg width="29" height="32" viewBox="0 0 29 32" fill="none" xmlns="http://www.w3.org/2000/svg">
<path d="M2.06625 27.6497L0 25.6195L5.945 19.6741C6.69417 18.9249 7.20747 17.9881 7.4849 16.8638C7.7633 15.7404 7.9025 14.0187 7.9025 11.6985C7.9025 10.2967 8.21667 8.91915 8.845 7.56571C9.47333 6.21228 10.3675 4.95552 11.5275 3.79544C13.7267 1.59611 16.1554 0.351437 18.8138 0.0614163C21.4721 -0.228605 23.6592 0.508532 25.375 2.27283C27.115 4.01296 27.84 6.21228 27.55 8.87081C27.26 11.5293 26.0275 13.9462 23.8525 16.1213C22.6925 17.2814 21.4358 18.1757 20.0825 18.804C18.7292 19.4324 17.3517 19.7466 15.95 19.7466C13.6058 19.7466 11.89 19.8795 10.8025 20.1454C9.715 20.4112 8.78458 20.9309 8.01125 21.7042L2.06625 27.6497ZM12.035 15.5413C13.1708 16.653 14.7054 17.0639 16.6388 16.7739C18.5721 16.4839 20.3 15.5776 21.8225 14.0549C23.3692 12.5082 24.2938 10.7738 24.5963 8.85196C24.8979 6.93105 24.4808 5.42681 23.345 4.33923C22.185 3.17914 20.6688 2.74411 18.7964 3.03413C16.923 3.32416 15.2008 4.24256 13.63 5.78934C12.1075 7.31195 11.1834 9.03419 10.8576 10.9561C10.5309 12.877 10.9233 14.4054 12.035 15.5413ZM23.2 32C21.605 32 20.2396 31.432 19.1038 30.2961C17.9679 29.1602 17.4 27.7947 17.4 26.1996C17.4 24.6045 17.9679 23.2389 19.1038 22.103C20.2396 20.9671 21.605 20.3992 23.2 20.3992C24.795 20.3992 26.1604 20.9671 27.2963 22.103C28.4321 23.2389 29 24.6045 29 26.1996C29 27.7947 28.4321 29.1602 27.2963 30.2961C26.1604 31.432 24.795 32 23.2 32ZM23.2 29.0998C23.9975 29.0998 24.6805 28.8161 25.2489 28.2486C25.8163 27.6801 26.1 26.9971 26.1 26.1996C26.1 25.402 25.8163 24.719 25.2489 24.1506C24.6805 23.5831 23.9975 23.2994 23.2 23.2994C22.4025 23.2994 21.7196 23.5831 21.1511 24.1506C20.5837 24.719 20.3 25.402 20.3 26.1996C20.3 26.9971 20.5837 27.6801 21.1511 28.2486C21.7196 28.8161 22.4025 29.0998 23.2 29.0998Z" fill="#292929"/>
</svg>
