<svg width="30" height="30" viewBox="0 0 30 30" fill="none" xmlns="http://www.w3.org/2000/svg">
<path d="M28.8452 20.8609C29.5932 19.0809 29.9854 17.1728 30 15.2433V15.0978C29.9876 12.5114 29.2973 9.97306 27.9974 7.73374C27.045 5.99597 25.753 4.46543 24.1976 3.23219C22.6422 1.99895 20.8547 1.08793 18.9403 0.552742C17.026 0.0175527 15.0235 -0.130995 13.0506 0.115841C11.0778 0.362677 9.17444 0.99991 7.45263 1.99004C5.73082 2.98017 4.22532 4.30319 3.02472 5.88126C1.82413 7.45932 0.952696 9.26053 0.461706 11.1789C-0.0292846 13.0973 -0.129912 15.0941 0.165745 17.0517C0.461402 19.0094 1.14737 20.8884 2.18328 22.5782C2.47401 23.0876 2.79621 23.5785 3.14802 24.0481L3.17726 24.0772C5.3648 26.9765 8.54346 28.9773 12.1122 29.7013C15.681 30.4254 19.3926 29.8225 22.5452 28.0066C25.2989 26.433 27.4717 24.0197 28.7429 21.1229C28.7833 21.0381 28.8175 20.9506 28.8452 20.8609ZM9.28729 3.39683C10.5475 2.78019 11.9003 2.3722 13.2924 2.1889C15.7229 3.32045 17.7441 5.17019 19.0809 7.48634C20.2875 9.54592 20.8949 11.8991 20.835 14.2828H15.602L9.28729 3.39683ZM15.602 16.0292H28.2167C28.1142 17.4236 27.7936 18.7936 27.2666 20.0896C25.1827 21.5318 22.7243 22.3431 20.1878 22.4258C17.6513 22.5084 15.1449 21.8588 12.9708 20.5553L15.602 16.0292ZM26.4772 8.60695C27.4909 10.3392 28.0864 12.2822 28.2167 14.2828H22.589C22.646 11.593 21.9582 8.93954 20.6011 6.61313C19.5953 4.87825 18.2479 3.36351 16.6398 2.15979C18.6713 2.39509 20.6191 3.10078 22.3274 4.22034C24.0357 5.3399 25.4569 6.84221 26.4772 8.60695ZM7.76709 4.27003L10.5736 9.11631C8.51256 10.26 6.75228 11.8727 5.4364 13.8227C4.12052 15.7727 3.28631 18.0049 3.00185 20.337C1.79457 17.5252 1.60993 14.3823 2.47974 11.4495C3.34955 8.51678 5.21936 5.97785 7.76709 4.27003ZM4.71207 23.204C4.47395 20.5377 5.07142 17.8634 6.4223 15.5489C7.61775 13.4843 9.35629 11.7836 11.4506 10.6299L14.0818 15.156L7.76709 26.0419C6.60632 25.2604 5.57551 24.3028 4.71207 23.204ZM21.6681 26.4931C19.798 27.5716 17.6891 28.1732 15.5291 28.2443C13.3691 28.3154 11.2249 27.8538 9.28729 26.9006L12.0938 22.0688C14.1172 23.2744 16.3985 23.986 18.751 24.1453C21.1036 24.3047 23.4607 23.9073 25.6294 22.9857C24.5651 24.4134 23.2166 25.6074 21.6681 26.4931Z" fill="#292929"/>
</svg>
